<svg width="25" height="25" viewBox="0 0 25 25" fill="none" xmlns="http://www.w3.org/2000/svg">
<path fill-rule="evenodd" clip-rule="evenodd" d="M0 12.5C0 5.6075 5.6075 0 12.5 0C19.3925 0 25 5.6075 25 12.5C25 19.3925 19.3925 25 12.5 25C5.6075 25 0 19.3925 0 12.5ZM2.65945 12.5001C2.65945 17.9262 7.07408 22.3403 12.4999 22.3403C17.9258 22.3403 22.3404 17.9262 22.3404 12.5001C22.3404 7.07402 17.9258 2.65991 12.4999 2.65991C7.07408 2.65991 2.65945 7.07402 2.65945 12.5001Z" fill="#FFC59E"/>
<path d="M19.0139 12.1136H13.3964V5.35931C13.3964 4.79092 12.9355 4.33008 12.3671 4.33008C11.7987 4.33008 11.3379 4.79092 11.3379 5.35931V13.1429C11.3379 13.7113 11.7987 14.1721 12.3671 14.1721H19.0139C19.5823 14.1721 20.0431 13.7113 20.0431 13.1429C20.0431 12.5745 19.5823 12.1136 19.0139 12.1136Z" fill="#FFC59E"/>
</svg>
